<svg width="45" height="45" viewBox="0 0 45 45" fill="none" xmlns="http://www.w3.org/2000/svg">
<g clip-path="url(#clip0_2_26)">
<circle cx="22.5" cy="22.5" r="22.5" fill="white"/>
<g clip-path="url(#clip1_2_26)">
<path d="M19 32.3333C12.3333 34.3333 12.3333 29 9.66667 28.3333M28.3333 36.3333V31.1733C28.3833 30.5375 28.2975 29.8984 28.0814 29.2984C27.8653 28.6984 27.5239 28.1512 27.08 27.6933C31.2667 27.2267 35.6667 25.64 35.6667 18.36C35.6663 16.4984 34.9503 14.7083 33.6667 13.36C34.2745 11.7313 34.2315 9.93113 33.5467 8.33333C33.5467 8.33333 31.9733 7.86666 28.3333 10.3067C25.2773 9.47843 22.056 9.47843 19 10.3067C15.36 7.86666 13.7867 8.33333 13.7867 8.33333C13.1018 9.93113 13.0589 11.7313 13.6667 13.36C12.3735 14.7183 11.6567 16.5246 11.6667 18.4C11.6667 25.6267 16.0667 27.2133 20.2533 27.7333C19.8147 28.1866 19.4764 28.7272 19.2604 29.3199C19.0445 29.9126 18.9557 30.5441 19 31.1733V36.3333" stroke="#1E1E1E" stroke-width="3" stroke-linecap="round" stroke-linejoin="round"/>
</g>
</g>
<defs>
<clipPath id="clip0_2_26">
<rect width="45" height="45" fill="white"/>
</clipPath>
<clipPath id="clip1_2_26">
<rect width="32" height="32" fill="white" transform="translate(7 7)"/>
</clipPath>
</defs>
</svg>
