<svg width="49" height="48" viewBox="0 0 49 48" fill="none" xmlns="http://www.w3.org/2000/svg">
<circle cx="24.5" cy="24.5" r="22.5" fill="#D08550"/>
<g clip-path="url(#clip0_1_14)">
<path d="M20 35.3333C13.3333 37.3333 13.3333 32 10.6667 31.3333M29.3333 39.3333V34.1733C29.3834 33.5375 29.2975 32.8984 29.0814 32.2984C28.8653 31.6984 28.5239 31.1512 28.08 30.6933C32.2667 30.2267 36.6667 28.64 36.6667 21.36C36.6663 19.4984 35.9503 17.7083 34.6667 16.36C35.2745 14.7313 35.2315 12.9311 34.5467 11.3333C34.5467 11.3333 32.9733 10.8667 29.3333 13.3067C26.2773 12.4784 23.056 12.4784 20 13.3067C16.36 10.8667 14.7867 11.3333 14.7867 11.3333C14.1018 12.9311 14.0589 14.7313 14.6667 16.36C13.3735 17.7183 12.6567 19.5246 12.6667 21.4C12.6667 28.6267 17.0667 30.2133 21.2533 30.7333C20.8147 31.1866 20.4764 31.7272 20.2604 32.3199C20.0445 32.9126 19.9557 33.5441 20 34.1733V39.3333" stroke="#1E1E1E" stroke-width="3" stroke-linecap="round" stroke-linejoin="round"/>
</g>
<defs>
<clipPath id="clip0_1_14">
<rect width="32" height="32" fill="white" transform="translate(8 10)"/>
</clipPath>
</defs>
</svg>
