<svg width="49" height="48" viewBox="0 0 49 48" fill="none" xmlns="http://www.w3.org/2000/svg">
<circle cx="24.5" cy="24.5" r="22.5" fill="white"/>
<g clip-path="url(#clip0_3_55)">
<path d="M32.3333 16.6667H32.3467M18.3333 10.6667H31.6667C35.3486 10.6667 38.3333 13.6514 38.3333 17.3333V30.6667C38.3333 34.3486 35.3486 37.3333 31.6667 37.3333H18.3333C14.6514 37.3333 11.6667 34.3486 11.6667 30.6667V17.3333C11.6667 13.6514 14.6514 10.6667 18.3333 10.6667ZM30.3333 23.16C30.4979 24.2697 30.3083 25.403 29.7917 26.3987C29.275 27.3944 28.4575 28.2019 27.4555 28.7062C26.4535 29.2106 25.3179 29.3861 24.2104 29.2079C23.1028 29.0297 22.0797 28.5068 21.2864 27.7136C20.4932 26.9203 19.9703 25.8972 19.7921 24.7896C19.6139 23.6821 19.7894 22.5465 20.2938 21.5445C20.7981 20.5425 21.6056 19.725 22.6013 19.2083C23.597 18.6917 24.7303 18.5021 25.84 18.6667C26.9719 18.8345 28.0198 19.362 28.8289 20.1711C29.638 20.9802 30.1655 22.0281 30.3333 23.16Z" stroke="#1E1E1E" stroke-width="4" stroke-linecap="round" stroke-linejoin="round"/>
</g>
<defs>
<clipPath id="clip0_3_55">
<rect width="32" height="32" fill="white" transform="translate(9 8)"/>
</clipPath>
</defs>
</svg>
