<svg width="416" height="200" viewBox="0 0 416 200" fill="none" xmlns="http://www.w3.org/2000/svg">
<path d="M23.3454 60.0911L22.4445 61.5925C21.4993 63.1678 21 64.9705 21 66.8076C21 69.1926 21.8409 71.5011 23.3749 73.3273L26.8231 77.4322C29.877 81.0679 33.9085 83.7526 38.4404 85.1689L46.0467 87.5458C47.01 87.8469 48.0134 88 49.0227 88C54.533 88 59 92.467 59 97.9773V99.8626C59 100.619 58.9276 101.374 58.7839 102.117L56 116.5L55.1948 123.103C54.2939 130.49 60.0585 137 67.5 137L75.7326 137.772C80.8797 138.254 86.0705 137.936 91.12 136.827L96.868 135.566C101.598 134.527 106.453 134.182 111.282 134.539L144.5 137C148.464 137 152.391 137.756 156.071 139.228L160.5 141L165.123 143.19C168.318 144.703 171.855 145.352 175.38 145.07L176.38 144.99C180.34 144.673 184.289 145.724 187.567 147.967L187.887 148.186C190.566 150.019 193.737 151 196.984 151C199.301 151 201.59 150.5 203.696 149.535L207.263 147.9C210.73 146.311 214.438 145.315 218.235 144.954L219.496 144.834C221.828 144.612 224.174 144.587 226.51 144.76L236.5 145.5H237.388C245.006 145.5 252.502 143.58 259.182 139.916L260.088 139.42C263.016 137.814 266.146 136.605 269.393 135.826C274.411 134.621 279.622 134.463 284.704 135.359L288.737 136.071C292.202 136.683 295.486 138.061 298.349 140.106C302.349 142.964 307.143 144.5 312.059 144.5H319L324.481 145.231C325.637 145.385 326.5 146.371 326.5 147.537C326.5 148.153 326.745 148.745 327.181 149.181L333.5 155.5L339.054 161.381C341.002 163.444 342.564 165.839 343.665 168.454L344.435 170.282C345.462 172.722 347.083 174.866 349.15 176.52L350.546 177.637C352.458 179.167 354.834 180 357.283 180C361.131 180 364.687 177.95 366.615 174.619L367.788 172.593C368.591 171.207 369.164 169.7 369.485 168.13L372.542 153.182C373.179 150.068 374.112 147.021 375.327 144.084L391.5 105L398.111 83.4038C398.7 81.4786 399 79.4765 399 77.4632V73.1084C399 71.4178 398.436 69.7755 397.399 68.4411C396.181 66.876 394.401 65.8484 392.437 65.5774L383.161 64.2981C381.749 64.1034 380.311 64.3131 379.014 64.9028C376.808 65.9057 375.218 67.9084 374.743 70.2848L373.888 74.5624C373.63 75.8493 373.216 77.0997 372.654 78.2858L369 86L360.608 110.188C360.537 110.395 360.5 110.612 360.5 110.83C360.5 112.287 358.967 113.234 357.665 112.582L353.5 110.5L346.098 107.926C343.645 107.072 342 104.759 342 102.161C342 100.763 341.52 99.4071 340.64 98.3205L336.955 93.7682C334.685 90.9634 331.777 88.7417 328.474 87.2884L323.431 85.0699C321.819 84.3602 320.114 83.8818 318.367 83.6489C315.176 83.2235 311.93 83.6281 308.941 84.8235L304.479 86.6082C302.181 87.5274 300.082 88.8812 298.297 90.5952L291.939 96.6985C289.877 98.6781 286.793 99.1463 284.236 97.868C281.946 96.7232 280.5 94.3829 280.5 91.823V89.5V83.859C280.5 82.9554 280.593 82.0542 280.777 81.1696L281.674 76.8634C282.444 73.1702 280.482 69.4509 277 68L274.892 67.1568C269.679 65.0714 264.115 64 258.5 64H256.817C254.314 64 251.852 63.3621 249.664 62.1465C246.055 60.1416 241.77 59.7433 237.853 61.0489L233.514 62.4953C226.816 64.728 221.366 69.6757 218.499 76.1276L217.473 78.4351C215.843 82.1042 215 86.0746 215 90.0897V91.5825C215 97.649 217.226 103.505 221.257 108.039L222.334 109.251C222.777 109.749 223.166 110.292 223.494 110.872L229.774 121.955C230.545 123.315 229.563 125 228 125H225.005C223.898 125 223 125.898 223 127.005C223 127.33 222.921 127.65 222.769 127.938L219.451 134.244C218.538 135.978 216.86 137.18 214.923 137.486L212.972 137.794C210.536 138.178 208.272 136.451 208 134V132.451C208 129.158 208.325 125.874 208.971 122.645L209 122.5L209.209 119.988C209.402 117.672 209.307 115.34 208.925 113.047C208.642 111.353 208.205 109.688 207.617 108.073L206.5 105L205.432 102.864C204.812 101.625 204.064 100.455 203.198 99.373L201.89 97.7372C200.974 96.5927 199.821 95.6605 198.51 95.0051C197.839 94.6694 197.207 94.2601 196.626 93.7848L195.189 92.6088C193.075 90.8798 190.71 89.484 188.175 88.47L187 88L183.774 87.1399C180.937 86.3832 178.013 86 175.076 86C171.711 86 168.365 85.4968 165.148 84.5072L163.5 84L160.5 83L159.994 82.8735C159.098 82.6495 158.158 83.013 157.646 83.7814C157.549 83.9266 157.47 84.0829 157.41 84.2469L155.5 89.5L154 95L152.5 100L151.5 104L150.539 107.844C150.513 107.948 150.5 108.054 150.5 108.161C150.5 109.06 149.612 109.689 148.764 109.392L142.024 107.033C141.024 106.683 140.127 106.089 139.414 105.305L135.5 101L131 96L126.5 91L121.5 85L117 80.5L113.216 76.716C113.073 76.5725 112.947 76.412 112.843 76.238C112.112 75.0207 112.55 73.4398 113.803 72.7718L124.641 66.9915C125.873 66.3341 127.002 65.4979 127.99 64.5101L134.129 58.3711C135.685 56.8153 136.825 54.8939 137.446 52.783C138.44 49.4032 138.037 45.7658 136.326 42.6862L135.895 41.9108C134.652 39.6729 132.866 37.7835 130.701 36.4165L128.264 34.877C125.772 33.3033 123.036 32.1554 120.167 31.4805L118.87 31.1754C116.96 30.726 115.015 30.4403 113.057 30.3216L99.5 29.5L87.5273 30.2483C84.8468 30.4158 82.1841 30.7991 79.5652 31.3943L61.5 35.5L51.1879 39.1829C48.7331 40.0596 46.3505 41.127 44.0621 42.3752L36.5 46.5C33.1814 48.823 30.1861 51.5767 27.5928 54.6887L24.8146 58.0225C24.2723 58.6732 23.7811 59.3648 23.3454 60.0911Z" fill="#A5FDFD" stroke="#A4FDFD" stroke-width="30"/>
<path d="M370.678 149.41L352.545 142.81C351.553 142.449 351.037 141.342 351.398 140.35L378.223 66.6476C378.617 65.5651 379.725 65.0487 380.717 65.4099L398.849 72.0095C399.842 72.3707 400.358 73.4781 399.964 74.5606L373.139 148.263C372.777 149.255 371.67 149.771 370.678 149.41Z" fill="white"/>
<path d="M320.888 143.246H319.736C297.944 143.246 287 128.366 287 113.774C287 100.046 296.696 85.6456 318.584 85.6456C342.392 85.6456 343.448 106.862 343.448 110.03C343.448 114.446 341.624 118.094 335.96 120.014C331.448 121.55 324.344 122.606 319.352 122.798C317.816 122.798 317.336 122.126 316.952 120.974C315.8 117.806 313.976 111.566 313.976 111.182C313.976 110.126 314.744 109.646 315.992 109.358C320.984 108.206 321.656 108.014 321.656 106.67C321.656 105.806 319.832 102.734 315.8 102.734C311.192 102.734 307.352 106.766 307.352 112.718C307.352 119.534 312.344 127.214 324.344 127.214C325.016 127.214 325.784 127.214 326.456 127.118H326.648C327.992 127.118 329.624 127.982 329.624 129.614C329.624 130.574 327.128 137.102 325.688 140.366C324.92 141.902 323.672 143.246 320.888 143.246Z" fill="white"/>
<path d="M218.836 135.386L222.961 126.994C223.495 125.802 224.625 125.264 225.673 125.393C225.863 125.416 226.042 125.535 226.233 125.558C228.724 126.541 230.975 127.108 233.072 127.365C241.075 128.348 246.306 124.348 249.529 117.006C246.458 117.596 243.148 117.77 240.099 117.395C225.52 115.605 213.715 102.259 215.891 84.5362C217.307 73.0068 225.887 59.8424 245.992 62.311C250.566 62.8725 254.843 64.2683 258.361 66.3444C258.775 65.3314 259.656 65.2461 260.514 65.3514L260.99 65.4099C260.99 65.4099 276.488 68.3767 278.668 68.7411C280.181 69.0236 280.981 70.3793 280.806 71.8085C278.556 88.5552 276.332 105.885 271.814 119.839C265.427 139.559 249.877 145.678 235.013 143.853C229.486 143.174 224.088 141.447 219.284 138.826C218.462 138.435 218.365 137.65 218.458 136.887C218.528 136.316 218.694 135.756 218.836 135.386ZM253.48 99.7909L253.992 99.5636C254.65 95.7756 255.26 91.5948 255.787 87.307C255.955 82.7818 252.532 79.9434 248.435 79.4403C242.432 78.7033 238.5 83.1533 237.845 88.4892C237.389 92.2053 237.954 100.206 246.339 101.235C248.626 101.516 251.803 100.842 253.48 99.7909Z" fill="white"/>
<path d="M208.126 124.154L207.468 127.252C206.35 132.511 206.672 136.996 209.764 141.383C210.228 141.972 210.967 143.111 210.747 144.144C210.628 144.707 210.226 145.21 209.469 145.54C209.429 145.728 198.716 150.419 198.716 150.419C197.617 150.971 196.618 151.053 195.773 150.873C194.083 150.514 180.116 142.344 183.669 125.629L184.348 122.436C186.443 112.577 182.533 107.427 175.758 105.594L166.728 139.302C166.529 140.241 165.504 140.906 164.565 140.706L164.377 140.667L145.796 135.736C144.689 135.402 144.118 134.397 144.357 133.271L157.272 84.9804C157.585 83.9674 158.61 83.3019 159.549 83.5015L159.737 83.5414L170.134 86.3403C173.956 86.3675 177.51 86.7304 180.89 87.449C199.953 91.5008 211.939 106.218 208.126 124.154Z" fill="white"/>
<path d="M141.014 111.883L125.085 122.909C124.671 123.219 124.14 123.46 123.676 123.585C122.192 123.982 120.856 123.446 120.404 122.871L87.4443 82.2083C86.9922 81.6337 86.6395 81.4301 86.3613 81.5046C85.6194 81.7034 85.2951 84.5731 83.4038 100.882L94.124 98.6062C95.3295 98.2832 96.5301 99.0547 96.8531 100.26L96.9028 100.446L100.238 117.342C100.443 118.48 99.789 119.748 98.5836 120.071L98.3981 120.121L81.0196 123.883C80.4504 128.806 80.0715 132.585 80.017 133.494C79.8515 134.731 79.2836 135.579 78.1708 135.877C77.7072 136.001 77.2187 136.033 76.6126 135.997L61.3319 135.718C59.4209 135.634 58.3809 134.72 58.0082 133.329C57.238 130.454 59.1308 74.0918 70.4689 55.947C70.9011 55.3343 72.1181 54.3125 73.509 53.9398L86.9547 50.337C88.902 49.8152 90.7269 50.3201 91.3214 51.0553L141.04 107.9C141.325 108.221 141.659 108.728 141.784 109.192C142.032 110.119 141.842 111.263 141.014 111.883Z" fill="white"/>
<path d="M355.728 177.456C348.144 177.456 342 171.312 342 163.728C342 156.144 348.144 150 355.728 150C363.216 150 369.36 156.144 369.36 163.728C369.36 171.312 363.216 177.456 355.728 177.456Z" fill="white"/>
<path d="M137.78 45.3732C140.67 59.3864 116.922 76.1261 84.738 82.7625C52.5541 89.3988 24.1215 83.4187 21.232 69.4055C18.3424 55.3923 42.0902 38.6525 74.274 32.0162C106.458 25.3798 134.89 31.3599 137.78 45.3732ZM42.6025 64.9989C44.4324 73.8731 62.438 77.6602 82.8193 73.4575C103.2 69.2549 118.239 58.654 116.409 49.7798C114.58 40.9056 96.5739 37.1185 76.1927 41.3212C55.8115 45.5238 40.7726 56.1247 42.6025 64.9989Z" fill="#F4D62C"/>
<mask id="mask0_2_2" style="mask-type:alpha" maskUnits="userSpaceOnUse" x="57" y="50" width="344" height="128">
<path d="M370.678 149.41L352.545 142.81C351.553 142.449 351.037 141.342 351.398 140.35L378.223 66.6476C378.617 65.5651 379.725 65.0487 380.717 65.4099L398.849 72.0095C399.842 72.3707 400.358 73.4781 399.964 74.5606L373.139 148.263C372.777 149.255 371.67 149.771 370.678 149.41Z" fill="white"/>
<path d="M320.888 143.246H319.736C297.944 143.246 287 128.366 287 113.774C287 100.046 296.696 85.6456 318.584 85.6456C342.392 85.6456 343.448 106.862 343.448 110.03C343.448 114.446 341.624 118.094 335.96 120.014C331.448 121.55 324.344 122.606 319.352 122.798C317.816 122.798 317.336 122.126 316.952 120.974C315.8 117.806 313.976 111.566 313.976 111.182C313.976 110.126 314.744 109.646 315.992 109.358C320.984 108.206 321.656 108.014 321.656 106.67C321.656 105.806 319.832 102.734 315.8 102.734C311.192 102.734 307.352 106.766 307.352 112.718C307.352 119.534 312.344 127.214 324.344 127.214C325.016 127.214 325.784 127.214 326.456 127.118H326.648C327.992 127.118 329.624 127.982 329.624 129.614C329.624 130.574 327.128 137.102 325.688 140.366C324.92 141.902 323.672 143.246 320.888 143.246Z" fill="white"/>
<path d="M218.836 135.386L222.961 126.994C223.495 125.802 224.625 125.264 225.673 125.393C225.863 125.416 226.042 125.535 226.233 125.558C228.724 126.541 230.975 127.108 233.072 127.365C241.075 128.348 246.306 124.348 249.529 117.006C246.458 117.596 243.148 117.77 240.099 117.395C225.52 115.605 213.715 102.259 215.891 84.5362C217.307 73.0068 225.887 59.8424 245.992 62.311C250.566 62.8725 254.843 64.2683 258.361 66.3444C258.775 65.3314 259.656 65.2461 260.514 65.3514L260.99 65.4099C260.99 65.4099 276.488 68.3767 278.668 68.7411C280.181 69.0236 280.981 70.3793 280.806 71.8085C278.556 88.5552 276.332 105.885 271.814 119.839C265.427 139.559 249.877 145.678 235.013 143.853C229.486 143.174 224.088 141.447 219.284 138.826C218.462 138.435 218.365 137.65 218.458 136.887C218.528 136.316 218.694 135.756 218.836 135.386ZM253.48 99.7909L253.992 99.5636C254.65 95.7756 255.26 91.5948 255.787 87.307C255.955 82.7818 252.532 79.9434 248.435 79.4403C242.432 78.7033 238.5 83.1533 237.845 88.4892C237.389 92.2053 237.954 100.206 246.339 101.235C248.626 101.516 251.803 100.842 253.48 99.7909Z" fill="white"/>
<path d="M208.126 124.154L207.468 127.252C206.35 132.511 206.672 136.996 209.764 141.383C210.228 141.972 210.967 143.111 210.747 144.144C210.628 144.707 210.226 145.21 209.469 145.54C209.429 145.728 198.716 150.419 198.716 150.419C197.617 150.971 196.618 151.053 195.773 150.873C194.083 150.514 180.116 142.344 183.669 125.629L184.348 122.436C186.443 112.577 182.533 107.427 175.758 105.594L166.728 139.302C166.529 140.241 165.504 140.906 164.565 140.706L164.377 140.667L145.796 135.736C144.689 135.402 144.118 134.397 144.357 133.271L157.272 84.9804C157.585 83.9674 158.61 83.3019 159.549 83.5015L159.737 83.5414L170.134 86.3403C173.956 86.3675 177.51 86.7304 180.89 87.449C199.953 91.5008 211.939 106.218 208.126 124.154Z" fill="white"/>
<path d="M141.014 111.883L125.085 122.909C124.671 123.219 124.14 123.46 123.676 123.585C122.192 123.982 120.856 123.446 120.404 122.871L87.4443 82.2083C86.9922 81.6337 86.6395 81.4301 86.3613 81.5046C85.6194 81.7034 85.2951 84.5731 83.4038 100.882L94.124 98.6062C95.3295 98.2832 96.5301 99.0547 96.8531 100.26L96.9028 100.446L100.238 117.342C100.443 118.48 99.789 119.748 98.5836 120.071L98.3981 120.121L81.0196 123.883C80.4504 128.806 80.0715 132.585 80.017 133.494C79.8515 134.731 79.2836 135.579 78.1708 135.877C77.7072 136.001 77.2187 136.033 76.6126 135.997L61.3319 135.718C59.4209 135.634 58.3809 134.72 58.0082 133.329C57.238 130.454 59.1308 74.0918 70.4689 55.947C70.9011 55.3343 72.1181 54.3125 73.509 53.9398L86.9547 50.337C88.902 49.8152 90.7269 50.3201 91.3214 51.0553L141.04 107.9C141.325 108.221 141.659 108.728 141.784 109.192C142.032 110.119 141.842 111.263 141.014 111.883Z" fill="white"/>
<path d="M355.728 177.456C348.144 177.456 342 171.312 342 163.728C342 156.144 348.144 150 355.728 150C363.216 150 369.36 156.144 369.36 163.728C369.36 171.312 363.216 177.456 355.728 177.456Z" fill="white"/>
</mask>
<g mask="url(#mask0_2_2)">
<path d="M47.616 116.891L30.97 167.737C27.4382 178.525 33.5827 190.086 44.5 193.195L241.002 249.15C245.217 250.35 249.709 250.133 253.789 248.531L383.004 197.799C391.055 194.638 396.161 186.66 395.661 178.025L393.814 146.16C393.117 134.135 382.027 125.45 370.186 127.655L324.816 136.103C321.652 136.692 318.393 136.509 315.315 135.57L279.046 124.498C274.803 123.203 270.249 123.355 266.102 124.931L250.932 130.696C248.663 131.558 246.256 132 243.828 132H197L174.253 135.159C166.232 136.273 158.331 132.441 154.241 125.453L149.831 117.919C149.278 116.975 148.803 115.986 148.412 114.964L142.169 98.6525C137.675 86.9087 123.587 82.1768 112.914 88.8265L74.3693 112.843C70.8473 115.037 66.3276 114.788 63.0681 112.22C57.6934 107.986 49.7448 110.388 47.616 116.891Z" fill="#FF0000" fill-opacity="0.25"/>
<path d="M46.616 100.891L29.97 151.737C26.4382 162.525 32.5827 174.086 43.5 177.195L240.002 233.15C244.217 234.35 248.709 234.133 252.789 232.531L382.004 181.799C390.055 178.638 395.161 170.66 394.661 162.025L392.814 130.16C392.117 118.135 381.027 109.45 369.186 111.655L323.816 120.103C320.652 120.692 317.393 120.509 314.315 119.57L278.046 108.498C273.803 107.203 269.249 107.355 265.102 108.931L249.932 114.696C247.663 115.558 245.256 116 242.828 116H196L173.253 119.159C165.232 120.273 157.331 116.441 153.241 109.453L148.831 101.919C148.278 100.975 147.803 99.9863 147.412 98.9642L141.169 82.6525C136.675 70.9087 122.587 66.1768 111.914 72.8265L73.3693 96.843C69.8473 99.0374 65.3276 98.7884 62.0681 96.2203C56.6934 91.9857 48.7448 94.3885 46.616 100.891Z" fill="#FF8C00" fill-opacity="0.25"/>
<path d="M46.616 75.8912L29.97 126.737C26.4382 137.525 32.5827 149.086 43.5 152.195L240.002 208.15C244.217 209.35 248.709 209.133 252.789 207.531L382.004 156.799C390.055 153.638 395.161 145.66 394.661 137.025L392.814 105.16C392.117 93.1351 381.027 84.4501 369.186 86.655L323.816 95.1033C320.652 95.6924 317.393 95.5094 314.315 94.5699L278.046 83.4982C273.803 82.2029 269.249 82.3552 265.102 83.9311L249.932 89.6957C247.663 90.558 245.256 91 242.828 91H196L173.253 94.1594C165.232 95.2733 157.331 91.4413 153.241 84.4531L148.831 76.9191C148.278 75.9746 147.803 74.9863 147.412 73.9642L141.169 57.6525C136.675 45.9087 122.587 41.1768 111.914 47.8265L73.3693 71.843C69.8473 74.0374 65.3276 73.7884 62.0681 71.2203C56.6934 66.9857 48.7448 69.3885 46.616 75.8912Z" fill="#FFD900" fill-opacity="0.25"/>
</g>
</svg>
