<svg width="45" height="46" viewBox="0 0 45 46" fill="none" xmlns="http://www.w3.org/2000/svg">
<circle cx="22.5" cy="22.5" r="22.5" fill="white"/>
<g clip-path="url(#clip0_1_14)">
<path d="M36.0533 14.56C35.895 13.9272 35.5724 13.3474 35.1182 12.8792C34.664 12.411 34.0943 12.0709 33.4667 11.8933C31.1733 11.3333 22 11.3333 22 11.3333C22 11.3333 12.8267 11.3333 10.5333 11.9467C9.90566 12.1242 9.33597 12.4643 8.8818 12.9325C8.42762 13.4008 8.10505 13.9805 7.94667 14.6133C7.52695 16.9407 7.32165 19.3017 7.33334 21.6667C7.31837 24.0494 7.52369 26.4284 7.94667 28.7733C8.12128 29.3865 8.45108 29.9442 8.90419 30.3926C9.35731 30.8411 9.91843 31.1651 10.5333 31.3333C12.8267 31.9467 22 31.9467 22 31.9467C22 31.9467 31.1733 31.9467 33.4667 31.3333C34.0943 31.1557 34.664 30.8157 35.1182 30.3475C35.5724 29.8792 35.895 29.2994 36.0533 28.6667C36.4698 26.3568 36.6751 24.0138 36.6667 21.6667C36.6816 19.2839 36.4763 16.9049 36.0533 14.56Z" stroke="#1E1E1E" stroke-width="4" stroke-linecap="round" stroke-linejoin="round"/>
<path d="M19 26.0267L26.6667 21.6667L19 17.3067V26.0267Z" stroke="#1E1E1E" stroke-width="4" stroke-linecap="round" stroke-linejoin="round"/>
</g>
<defs>
<clipPath id="clip0_1_14">
<rect width="32" height="32" fill="white" transform="translate(6 6)"/>
</clipPath>
</defs>
</svg>
