<svg width="49" height="48" viewBox="0 0 49 48" fill="none" xmlns="http://www.w3.org/2000/svg">
<circle cx="22.5" cy="22.5" r="22.5" fill="#D06150"/>
<g clip-path="url(#clip0_1_14)">
<path d="M38.81 14.63C38.6318 13.9181 38.2689 13.2659 37.758 12.7391C37.247 12.2124 36.6061 11.8298 35.9 11.63C33.32 11 23 11 23 11C23 11 12.68 11 10.1 11.69C9.39387 11.8898 8.75297 12.2724 8.24202 12.7991C7.73107 13.3259 7.36818 13.9781 7.19 14.69C6.71782 17.3083 6.48685 19.9645 6.5 22.625C6.48317 25.3056 6.71415 27.982 7.19 30.62C7.38644 31.3098 7.75746 31.9372 8.26722 32.4417C8.77697 32.9462 9.40823 33.3107 10.1 33.5C12.68 34.19 23 34.19 23 34.19C23 34.19 33.32 34.19 35.9 33.5C36.6061 33.3002 37.247 32.9176 37.758 32.3909C38.2689 31.8641 38.6318 31.2119 38.81 30.5C39.2785 27.9014 39.5095 25.2655 39.5 22.625C39.5168 19.9444 39.2858 17.268 38.81 14.63Z" stroke="#1E1E1E" stroke-width="4" stroke-linecap="round" stroke-linejoin="round"/>
<path d="M19.625 27.53L28.25 22.625L19.625 17.72V27.53Z" stroke="#1E1E1E" stroke-width="4" stroke-linecap="round" stroke-linejoin="round"/>
</g>
<defs>
<clipPath id="clip0_1_14">
<rect width="36" height="36" fill="white" transform="translate(5 5)"/>
</clipPath>
</defs>
</svg>
